# Blender v2.82 (sub 7) OBJ File: ''
# www.blender.org
mtllib grass.mtl
o grass_Cube.108
v -2.500000 0.100000 -1.500000
v -2.500000 1.100000 -1.500000
v -2.500000 0.100000 -2.500000
v -2.500000 1.100000 -2.500000
v -1.500000 0.100000 -1.500000
v -1.500000 1.100000 -1.500000
v -1.500000 0.100000 -2.500000
v -1.500000 1.100000 -2.500000
vt 0.999900 0.000100
vt 0.999900 0.999900
vt 0.000100 0.999900
vt 0.000100 0.000100
vt 0.999900 0.000100
vt 0.999900 0.999900
vt 0.000100 0.999900
vt 0.000100 0.000100
vt 0.000100 0.999900
vt 0.000100 0.000100
vt 0.999900 0.000100
vt 0.999900 0.999900
vt 0.000100 0.999900
vt 0.000100 0.000100
vt 0.999900 0.000100
vt 0.999900 0.999900
vt 0.999900 0.000100
vt 0.000100 0.999900
vt 0.999900 0.000100
vt 0.000100 0.999900
vn -1.0000 0.0000 0.0000
vn 0.0000 0.0000 -1.0000
vn 1.0000 0.0000 0.0000
vn 0.0000 0.0000 1.0000
vn 0.0000 -1.0000 0.0000
vn 0.0000 1.0000 0.0000
usemtl grass_side
s off
f 1/1/1 2/2/1 4/3/1 3/4/1
f 3/5/2 4/6/2 8/7/2 7/8/2
usemtl grass_side_alt
f 7/9/3 8/10/3 6/11/3 5/12/3
f 5/13/4 6/14/4 2/15/4 1/16/4
usemtl grass_top
f 3/4/5 7/17/5 5/12/5 1/18/5
f 8/10/6 4/19/6 2/2/6 6/20/6
